# xmcd CD database file
# Copyright (C) 1997 Ti Kan
#
# Track frame offsets:
#  150
#  11850
#  19232
#  28297
#  42777
#  53587
#  60710
#  71407
#  79270
#  94595
#  111160
#  124247
#  136357
#  150620
#  165190
#  175532
#  187130
#  204435
#  221200
#
# Disc length: 3126 seconds
#
# Revision: 1
# Processed by: cddbd v1.4b41PL1 Copyright (c) Steve Scherf et al.
# Submitted via: CDWizzard Release:4.32
#
DISCID=060c3413
DTITLE=Jeff Howell - Blues Dumps
DYEAR=1900
DGENRE=
TTITLE0=I'm Walking, I'm O.J.
TTITLE1=Dirty Jim (What in the Hell is Wrong with Him)
TTITLE2=Ten Foot Bucket Blues
TTITLE3=Cracker From Palatka
TTITLE4=Miss Black Russ and Bo
TTITLE5=Mighty Mary
TTITLE6=Santa Claus is Coming to My Town
TTITLE7=The American Gladiator Song
TTITLE8=Russ and Bo Blues
TTITLE9=Russ and Bo and the Palatka Puss
TTITLE10=Seduced
TTITLE11=Hold 'em Down
TTITLE12=Liquor World in Narcoosee
TTITLE13=Our Love is Like a Stump
TTITLE14=Hold 'em Down (Trail Mix)
TTITLE15=I'm Walking, I'm O.J. (Dance Mix)
TTITLE16=Love is Gone
TTITLE17=1/4 to Two
TTITLE18=Hit the Road Shaq
EXTD=Recorded during visits to the "Russ and Bo Show with Dirty Jim" on W
EXTD=TKS "Real Radio" 104.1.\n\nThe songs Love is Gone and 1/4 to Two can
EXTD=be found on Jeff Howell's CD Blues Junk.
EXTT0=
EXTT1=
EXTT2=
EXTT3=
EXTT4=
EXTT5=
EXTT6=
EXTT7=
EXTT8=
EXTT9=
EXTT10=
EXTT11=
EXTT12=
EXTT13=
EXTT14=
EXTT15=
EXTT16=
EXTT17=
EXTT18=
PLAYORDER=
